{"title":"F1 2014- The F1 Show-Bahrain-Force India Special.720p.AC3.TBK","uid":9892055,"size":1270542085,"categoryP":"video","categoryS":"hd___tv_shows","magnet":"?xt=urn:btih:d064f2921d0ffe124eb44d9538cff074520a8465&amp;dn=F1+2014-+The+F1+Show-Bahrain-Force+India+Special.720p.AC3.TBK&amp;tr=udp%3A%2F%2Ftracker.openbittorrent.com%3A80&amp;tr=udp%3A%2F%2Fopen.demonii.com%3A1337&amp;tr=udp%3A%2F%2Ftracker.coppersurfer.tk%3A6969&amp;tr=udp%3A%2F%2Fexodus.desync.com%3A6969","seeders":2,"leechers":0,"uploader":"tbkf1","files":3,"time":1396656121,"description":"The F1 Show 04.04.14 (Bahrain)\n\nCoverage of the SKY SPORTS F1 SHOW For Bahrain Force India Special \n\nMAIN FILE DETAILS:\n\nAir Date: 04.04.14\nResolution: 1280x720\nAudio: AC3 5.1 Channel Dolby Digital \nVideo: H.264 Profile 4.0 High\nContainer: MKV\nRunning Time: 47.08\nBroadcast Time: 20.00-21.00\nSource: Encoded From VU+ Solo2 PVR\nBroadcast: Sky Sports F1 HD (UK)\nFilesize: 1.18GB\n\nSimon Lazenby &amp; Natalie Pinkham are joined by Force India drivers Nico Hulkenberg and Sergio Perez at Bahrain International Circuit for a Force India Speical.\n\n\nThese video files will play very fluidly with the standard media players such as VLC, WMP, KM Player, WMC, MP-HC.\n\nFOR ALL YOUR LATEST F1 NEWS, GOSSIP, TRACK GUIDES, DISCUSSION &amp; FULL TORRENT &amp; FILESHARE LINKS INFORMATION IN MORE DETAIL, AND ACCESS TO MUCH MORE, PLEASE KEEP YOUR EYE ON MY BLOG See .txt File included\n\n\n**For anyone having mkv playback issues on Windows 7 or 8, I do recommend installing the Shark Codec Packs which are available free on the link below: http://shark007.net/ (*NOTE: sharks default settings work well for WMP)\n\nEXTENDED FILE DETAILS:\n\n\nFormat                                   : AVC\nFormat/Info                              : Advanced Video Codec\nFormat profile                           : &lt;a class=&quot;__cf_email__&quot; href=&quot;/cdn-cgi/l/email-protection&quot; data-cfemail=&quot;5911303e3119156d7769&quot;&gt;[email&amp;#160;protected]&lt;/a&gt;&lt;script cf-hash='f9e31' type=&quot;text/javascript&quot;&gt;\n/* &lt;![CDATA[ */!function(){try{var t=&quot;currentScript&quot;in document?document.currentScript:function(){for(var t=document.getElementsByTagName(&quot;script&quot;),e=t.length;e--;)if(t[e].getAttribute(&quot;cf-hash&quot;))return t[e]}();if(t&amp;&amp;t.previousSibling){var e,r,n,i,c=t.previousSibling,a=c.getAttribute(&quot;data-cfemail&quot;);if(a){for(e=&quot;&quot;,r=parseInt(a.substr(0,2),16),n=2;a.length-n;n+=2)i=parseInt(a.substr(n,2),16)^r,e+=String.fromCharCode(i);e=document.createTextNode(e),c.parentNode.replaceChild(e,c)}}}catch(u){}}();/* ]]&gt; */&lt;/script&gt;\nFormat settings, CABAC                   : Yes\nFormat settings, ReFrames                : 5 frames\nCodec ID                                 : V_MPEG4/ISO/AVC\nDuration                                 : 47mn 8s\nBit rate                                 : 3 138 Kbps\nWidth                                    : 1 280 pixels\nHeight                                   : 720 pixels\nDisplay aspect ratio                     : 16:9\nOriginal display aspect ratio            : 16:9\nFrame rate mode                          : Constant\nFrame rate                               : 25.000 fps\nColor space                              : YUV\nChroma subsampling                       : 4:2:0\nBit depth                                : 8 bits\nScan type                                : Progressive\nBits/(Pixel*Frame)                       : 0.136\nStream size                              : 1.03 GiB (87%)\nLanguage                                 : English\nDefault                                  : Yes\nForced                                   : No\nColor primaries                          : BT.709\nTransfer characteristics                 : BT.709\nMatrix coefficients                      : BT.709\n\nAudio\nID                                       : 2\nFormat                                   : AC-3\nFormat/Info                              : Audio Coding 3\nMode extension                           : CM (complete main)\nFormat settings, Endianness              : Big\nCodec ID                                 : A_AC3\nDuration                                 : 47mn 8s\nBit rate mode                            : Constant\nBit rate                                 : 384 Kbps\nChannel(s)                               : 6 channels\nChannel positions                        : Front: L C R, Side: L R, LFE\nSampling rate                            : 48.0 KHz\nBit depth                                : 16 bits\nCompression mode                         : Lossy\nStream size                              : 129 MiB (11%)\nLanguage                                 : English\nDefault                                  : Yes\nForced                                   : No","torrent":{"xt":"urn:btih:d064f2921d0ffe124eb44d9538cff074520a8465","amp;dn":"F1+2014-+The+F1+Show-Bahrain-Force+India+Special.720p.AC3.TBK","amp;tr":["udp%3A%2F%2Ftracker.openbittorrent.com%3A80","udp%3A%2F%2Fopen.demonii.com%3A1337","udp%3A%2F%2Ftracker.coppersurfer.tk%3A6969","udp%3A%2F%2Fexodus.desync.com%3A6969"],"infoHash":"d064f2921d0ffe124eb44d9538cff074520a8465","infoHashBuffer":{"type":"Buffer","data":[208,100,242,146,29,15,254,18,78,180,77,149,56,207,240,116,82,10,132,101]},"announce":[],"urlList":[]}}